<?xml version="1.0" encoding="UTF-8"?> <svg xmlns="http://www.w3.org/2000/svg" width="170" height="54" viewBox="0 0 170 54" fill="none"><g clip-path="url(#clip0_5_1126)"><path d="M21.4835 24.3156H27.1944V40.4487L35.1721 32.5698V23.1098C35.1721 23.1098 15.5589 23.1098 5.7378 23.1098V40.4487C5.67137 40.3954 5.62985 40.3688 5.59456 40.3359C3.80721 38.5703 0 34.8154 0 34.8154C0 34.8154 0.00415181 11.7466 0.00415181 0.381437C0.00415181 0.287103 0.00415181 0.192769 0.00415181 0.0840804H19.4242V17.4292H21.4649V0.0799789H40.887V8.12912H35.1783V5.73181H27.1944C27.1944 9.62411 27.2151 13.5185 27.2151 17.4333H40.9016V34.8338L21.4856 53.9979V24.3156H21.4835ZM13.6947 5.73591H5.74403V17.4272H13.6927V5.73591H13.6947Z" fill="#C52E32"></path><path d="M13.7051 24.3381C13.7051 24.3381 17.5061 24.3381 19.4097 24.3381V53.9979C19.3557 53.9487 13.7072 48.1882 13.7072 48.1882V24.3381H13.7051Z" fill="#C52E32"></path><path d="M63.9148 14.753H55.2562L53.6038 18.6904H49.1821L57.4941 0.315811H61.7559L70.0948 18.6904H65.5652L63.9128 14.753H63.9148ZM62.5551 11.5251L59.5969 4.49111L56.6388 11.5251H62.553H62.5551Z" fill="white"></path><path d="M89.3575 0.315817V18.6904H85.0957V3.77951H78.7019L78.5691 7.61234C78.4798 10.2209 78.266 12.3331 77.9297 13.9512C77.5913 15.5692 77.0287 16.8119 76.2378 17.6794C75.4469 18.5448 74.3425 18.9796 72.9205 18.9796C72.3351 18.9796 71.6231 18.8832 70.7886 18.6904L71.0543 15.0934C71.2847 15.1632 71.5421 15.198 71.8265 15.198C72.8562 15.198 73.5765 14.5992 73.9855 13.3995C74.3944 12.2019 74.6518 10.3234 74.7577 7.76819L75.0234 0.313766H89.3575V0.315817Z" fill="white"></path><path d="M108.286 7.84817C109.502 8.84483 110.11 10.3255 110.11 12.2839C110.11 14.3675 109.44 15.9547 108.099 17.0478C106.758 18.1408 104.871 18.6884 102.438 18.6884H94.02V0.315811H98.3088V6.35318H103.05C105.323 6.35318 107.069 6.85151 108.286 7.85022V7.84817ZM104.823 14.7263C105.454 14.1849 105.77 13.3975 105.77 12.3639C105.77 10.4567 104.58 9.50311 102.199 9.50311H98.3088V15.5405H102.199C103.318 15.5405 104.192 15.2698 104.823 14.7263Z" fill="white"></path><path d="M127.056 0.315811V18.6904H122.794V13.8076H118.852L115.549 18.6904H110.992L114.883 13.1514C113.62 12.6448 112.653 11.8779 111.978 10.8545C111.304 9.83123 110.965 8.60079 110.965 7.16732C110.965 5.73386 111.293 4.53007 111.951 3.50471C112.607 2.48139 113.542 1.69391 114.748 1.14226C115.954 0.59061 117.376 0.315811 119.009 0.315811H127.056ZM116.307 4.62031C115.659 5.18016 115.335 6.01071 115.335 7.114C115.335 8.2173 115.647 9.00478 116.267 9.58104C116.888 10.1593 117.803 10.4464 119.012 10.4464H122.794V3.77951H119.117C117.893 3.77951 116.954 4.06046 116.307 4.62031Z" fill="white"></path><path d="M148.822 0.315811V18.6904H144.506V11.156H136.034V18.6904H131.718V0.315811H136.034V7.56106H144.506V0.315811H148.822Z" fill="white"></path><path d="M157.146 17.784C155.61 16.9698 154.402 15.8419 153.524 14.3982C152.646 12.9545 152.206 11.3221 152.206 9.50312C152.206 7.68411 152.646 6.05173 153.524 4.60801C154.402 3.16429 155.61 2.03638 157.146 1.22224C158.682 0.408098 160.41 0.00205231 162.328 0.00205231C163.943 0.00205231 165.404 0.283003 166.71 0.842854C168.016 1.40271 169.112 2.20865 170 3.25862L167.229 5.77898C165.967 4.34346 164.406 3.6257 162.539 3.6257C161.385 3.6257 160.356 3.87589 159.448 4.37422C158.543 4.87255 157.837 5.56775 157.331 6.45982C156.824 7.35189 156.571 8.36701 156.571 9.50517C156.571 10.6433 156.824 11.6584 157.331 12.5505C157.837 13.4426 158.543 14.1378 159.448 14.6361C160.353 15.1344 161.383 15.3846 162.539 15.3846C164.404 15.3846 165.967 14.6587 167.229 13.2067L170 15.7271C169.112 16.7955 168.012 17.6076 166.697 18.1675C165.383 18.7273 163.918 19.0083 162.301 19.0083C160.399 19.0083 158.682 18.6022 157.146 17.7881V17.784Z" fill="white"></path><path d="M49.1572 25.3984H56.8298V27.1292H51.3432V29.061H53.9775C55.1275 29.061 56.0036 29.2989 56.6056 29.7726C57.2076 30.2463 57.5086 30.9313 57.5086 31.8254C57.5086 32.7646 57.1744 33.4926 56.5039 34.0115C55.8333 34.5303 54.8867 34.7887 53.6661 34.7887H49.1572V25.3963V25.3984ZM53.5436 33.1809C54.1041 33.1809 54.5359 33.0722 54.8348 32.8528C55.1338 32.6334 55.2832 32.3135 55.2832 31.8931C55.2832 31.0707 54.704 30.6585 53.5457 30.6585H51.3452V33.1809H53.5457H53.5436Z" fill="white"></path><path d="M66.5409 33.0456V34.7907H59.1797V25.3984H66.3644V27.1435H61.3677V29.182H65.7811V30.8718H61.3677V33.0456H66.5429H66.5409Z" fill="white"></path><path d="M75.0231 30.7713C75.3345 31.1692 75.4922 31.6326 75.4922 32.1597C75.4922 32.7318 75.3013 33.2281 74.9214 33.6485C74.5415 34.0689 74.0267 34.3909 73.381 34.6144C72.7334 34.8379 72.0255 34.9487 71.2553 34.9487C70.6035 34.9487 69.9537 34.8687 69.306 34.7067C68.6584 34.5467 68.046 34.3006 67.4668 33.9684L68.1456 32.4119C68.5629 32.6621 69.0217 32.8528 69.524 32.982C70.0264 33.1112 70.5184 33.1768 70.9979 33.1768C71.6497 33.1768 72.1916 33.0599 72.6213 32.8282C73.051 32.5965 73.2669 32.2704 73.2669 31.8479C73.2669 31.4993 73.1195 31.2348 72.8247 31.0564C72.5299 30.8779 72.1293 30.7877 71.6228 30.7877H69.2998V29.1512H71.4588C71.903 29.1512 72.2476 29.063 72.4967 28.8826C72.7458 28.7042 72.8704 28.4581 72.8704 28.1443C72.8704 27.7772 72.6919 27.4922 72.3348 27.2851C71.9777 27.08 71.5169 26.9754 70.9564 26.9754C70.5391 26.9754 70.1094 27.0308 69.6673 27.1436C69.223 27.2563 68.8016 27.4225 68.4051 27.646L67.7387 25.9562C68.7435 25.4455 69.8292 25.1913 70.9979 25.1913C71.7411 25.1913 72.4241 25.2979 73.0489 25.5132C73.6738 25.7285 74.172 26.0403 74.5436 26.4525C74.9151 26.8647 75.0999 27.3425 75.0999 27.888C75.0999 28.335 74.9774 28.7329 74.7325 29.0815C74.4875 29.4301 74.1533 29.6988 73.7277 29.8854C74.2799 30.0741 74.7117 30.3653 75.0252 30.7631L75.0231 30.7713Z" fill="white"></path><path d="M79.0961 34.3191C78.3031 33.8987 77.6845 33.3204 77.2361 32.5821C76.7877 31.8438 76.5635 31.0153 76.5635 30.0946C76.5635 29.1738 76.7877 28.3432 77.2361 27.605C77.6845 26.8667 78.3052 26.2884 79.0961 25.868C79.8891 25.4476 80.7776 25.2384 81.7657 25.2384C82.7538 25.2384 83.6402 25.4476 84.427 25.868C85.2138 26.2884 85.8345 26.8667 86.287 27.605C86.7396 28.3432 86.9658 29.1717 86.9658 30.0946C86.9658 31.0174 86.7396 31.8459 86.287 32.5821C85.8345 33.3204 85.2138 33.8987 84.427 34.3191C83.6402 34.7395 82.7517 34.9486 81.7657 34.9486C80.7796 34.9486 79.8891 34.7395 79.0961 34.3191ZM83.2853 32.7154C83.7378 32.4611 84.0928 32.1043 84.3523 31.649C84.6097 31.1938 84.7384 30.6749 84.7384 30.0925C84.7384 29.5101 84.6097 28.9913 84.3523 28.536C84.0949 28.0807 83.7399 27.7239 83.2853 27.4696C82.8327 27.2153 82.3262 27.0861 81.7636 27.0861C81.201 27.0861 80.6945 27.2133 80.242 27.4696C79.7894 27.7239 79.4345 28.0807 79.175 28.536C78.9175 28.9913 78.7888 29.5101 78.7888 30.0925C78.7888 30.6749 78.9175 31.1917 79.175 31.649C79.4324 32.1043 79.7874 32.4611 80.242 32.7154C80.6945 32.9697 81.201 33.0989 81.7636 33.0989C82.3262 33.0989 82.8327 32.9717 83.2853 32.7154Z" fill="white"></path><path d="M97.3288 25.3984V34.7907H95.1428V27.1702H90.8519V34.7907H88.666V25.3984H97.3308H97.3288Z" fill="white"></path><path d="M106.129 32.7769H101.715L100.873 34.7887H98.6182L102.855 25.3963H105.029L109.28 34.7887H106.972L106.129 32.7769ZM105.435 31.1261L103.928 27.5311L102.421 31.1261H105.435Z" fill="white"></path><path d="M112.276 34.3273C111.493 33.911 110.876 33.3347 110.428 32.5965C109.98 31.8582 109.755 31.0256 109.755 30.0946C109.755 29.1635 109.98 28.3309 110.428 27.5927C110.876 26.8544 111.491 26.2781 112.276 25.8618C113.058 25.4455 113.938 25.2384 114.916 25.2384C115.74 25.2384 116.485 25.382 117.15 25.667C117.816 25.9541 118.375 26.3643 118.827 26.9016L117.415 28.1894C116.772 27.4553 115.977 27.0882 115.024 27.0882C114.437 27.0882 113.911 27.2153 113.448 27.4717C112.988 27.726 112.626 28.0828 112.369 28.538C112.112 28.9933 111.981 29.5121 111.981 30.0946C111.981 30.677 112.109 31.1937 112.369 31.6511C112.626 32.1063 112.988 32.4632 113.448 32.7174C113.909 32.9717 114.434 33.1009 115.024 33.1009C115.975 33.1009 116.772 32.7298 117.415 31.9874L118.827 33.2752C118.375 33.8207 117.812 34.237 117.144 34.5221C116.473 34.8092 115.726 34.9507 114.902 34.9507C113.932 34.9507 113.056 34.7436 112.273 34.3273H112.276Z" fill="white"></path><path d="M128.986 25.3984V34.7907H126.786V30.9395H122.468V34.7907H120.268V25.3984H122.468V29.102H126.786V25.3984H128.986Z" fill="white"></path><path d="M133.229 34.3191C132.436 33.8987 131.818 33.3204 131.369 32.5821C130.921 31.8438 130.697 31.0153 130.697 30.0946C130.697 29.1738 130.921 28.3432 131.369 27.605C131.818 26.8667 132.438 26.2884 133.229 25.868C134.022 25.4476 134.911 25.2384 135.899 25.2384C136.887 25.2384 137.774 25.4476 138.56 25.868C139.347 26.2884 139.968 26.8667 140.42 27.605C140.873 28.3432 141.099 29.1717 141.099 30.0946C141.099 31.0174 140.873 31.8459 140.42 32.5821C139.968 33.3204 139.347 33.8987 138.56 34.3191C137.774 34.7395 136.885 34.9486 135.899 34.9486C134.913 34.9486 134.022 34.7395 133.229 34.3191ZM137.419 32.7154C137.871 32.4611 138.226 32.1043 138.486 31.649C138.743 31.1938 138.874 30.6749 138.874 30.0925C138.874 29.5101 138.745 28.9913 138.486 28.536C138.228 28.0807 137.871 27.7239 137.419 27.4696C136.966 27.2153 136.459 27.0861 135.897 27.0861C135.334 27.0861 134.828 27.2133 134.375 27.4696C133.923 27.726 133.568 28.0807 133.308 28.536C133.051 28.9913 132.922 29.5101 132.922 30.0925C132.922 30.6749 133.051 31.1917 133.308 31.649C133.566 32.1043 133.923 32.4611 134.375 32.7154C134.828 32.9697 135.334 33.0989 135.897 33.0989C136.459 33.0989 136.966 32.9717 137.419 32.7154Z" fill="white"></path><path d="M144.666 34.3273C143.883 33.911 143.266 33.3347 142.818 32.5965C142.37 31.8582 142.146 31.0256 142.146 30.0946C142.146 29.1635 142.37 28.3309 142.818 27.5927C143.266 26.8544 143.881 26.2781 144.666 25.8618C145.448 25.4455 146.328 25.2384 147.306 25.2384C148.13 25.2384 148.876 25.382 149.54 25.667C150.206 25.9541 150.765 26.3643 151.217 26.9016L149.806 28.1894C149.162 27.4553 148.367 27.0882 147.414 27.0882C146.827 27.0882 146.301 27.2153 145.839 27.4717C145.378 27.726 145.016 28.0828 144.759 28.538C144.502 28.9933 144.371 29.5121 144.371 30.0946C144.371 30.677 144.5 31.1937 144.759 31.6511C145.016 32.1063 145.378 32.4632 145.839 32.7174C146.299 32.9717 146.825 33.1009 147.414 33.1009C148.365 33.1009 149.162 32.7298 149.806 31.9874L151.217 33.2752C150.765 33.8207 150.202 34.237 149.534 34.5221C148.863 34.8092 148.116 34.9507 147.292 34.9507C146.322 34.9507 145.446 34.7436 144.664 34.3273H144.666Z" fill="white"></path><path d="M159.828 27.1682H156.785V34.7887H154.611V27.1682H151.583V25.3963H159.826V27.1682H159.828Z" fill="white"></path><path d="M161.213 25.3984H163.398V31.5157L167.934 25.3984H169.998V34.7907H167.824V28.6857L163.288 34.7907H161.21V25.3984H161.213Z" fill="white"></path></g><defs><clipPath id="clip0_5_1126"><rect width="170" height="54" fill="white"></rect></clipPath></defs></svg> 