<svg width="246" height="61" fill="none" xmlns="http://www.w3.org/2000/svg"><path d="M76.188 16V7.6h1.272l3.684 6.132h-.684L84.084 7.6h1.272l.024 8.4h-1.488l-.012-6.084h.312L81.12 15.04h-.696l-3.12-5.124h.36V16h-1.476zm11.555 0V7.6h1.536v5.964L93.79 7.6h1.452V16h-1.536v-5.952L89.195 16h-1.452zm15.759-8.4h1.56V16h-1.56V7.6zM99.158 16h-1.56V7.6h1.56V16zm4.464-3.6h-4.596v-1.332h4.596V12.4zm3.808 3.6V7.6h1.536v5.964l4.512-5.964h1.452V16h-1.536v-5.952L108.882 16h-1.452zm13.719.12a5.03 5.03 0 01-1.788-.312 4.464 4.464 0 01-1.428-.9 4.216 4.216 0 01-.936-1.38 4.379 4.379 0 01-.336-1.728c0-.624.112-1.2.336-1.728.224-.528.54-.984.948-1.368a4.205 4.205 0 011.428-.9 4.803 4.803 0 011.788-.324c.688 0 1.316.12 1.884.36.568.232 1.048.58 1.44 1.044l-1.008.948a2.976 2.976 0 00-1.02-.732 2.966 2.966 0 00-1.224-.252c-.44 0-.844.072-1.212.216-.36.144-.676.348-.948.612a2.908 2.908 0 00-.624.936c-.144.36-.216.756-.216 1.188 0 .432.072.828.216 1.188.152.36.36.672.624.936.272.264.588.468.948.612.368.144.772.216 1.212.216.44 0 .848-.08 1.224-.24.376-.168.716-.42 1.02-.756l1.008.96a3.843 3.843 0 01-1.44 1.044c-.568.24-1.2.36-1.896.36zm6.455-.12V8.536l.372.384h-3.144V7.6h7.104v1.32h-3.144l.36-.384V16h-1.548zm7.117-4.908h4.176v1.284h-4.176v-1.284zm.12 3.6h4.74V16h-6.3V7.6h6.132v1.308h-4.572v5.784zm6.48 1.308V7.6h3.456c.744 0 1.38.12 1.908.36.536.24.948.584 1.236 1.032.288.448.432.98.432 1.596 0 .616-.144 1.148-.432 1.596-.288.448-.7.792-1.236 1.032-.528.24-1.164.36-1.908.36h-2.592l.696-.732V16h-1.56zm1.56-2.988l-.696-.756h2.52c.688 0 1.204-.144 1.548-.432.352-.296.528-.708.528-1.236 0-.536-.176-.948-.528-1.236-.344-.288-.86-.432-1.548-.432h-2.52l.696-.768v4.86zm10.929 3.108a5.03 5.03 0 01-1.788-.312 4.464 4.464 0 01-1.428-.9 4.216 4.216 0 01-.936-1.38 4.379 4.379 0 01-.336-1.728c0-.624.112-1.2.336-1.728.224-.528.54-.984.948-1.368a4.205 4.205 0 011.428-.9 4.803 4.803 0 011.788-.324c.688 0 1.316.12 1.884.36.568.232 1.048.58 1.44 1.044l-1.008.948a2.976 2.976 0 00-1.02-.732 2.966 2.966 0 00-1.224-.252c-.44 0-.844.072-1.212.216-.36.144-.676.348-.948.612a2.908 2.908 0 00-.624.936c-.144.36-.216.756-.216 1.188 0 .432.072.828.216 1.188.152.36.36.672.624.936.272.264.588.468.948.612.368.144.772.216 1.212.216.44 0 .848-.08 1.224-.24.376-.168.716-.42 1.02-.756l1.008.96a3.843 3.843 0 01-1.44 1.044c-.568.24-1.2.36-1.896.36zm6.454-.12V8.536l.372.384h-3.144V7.6h7.104v1.32h-3.144l.36-.384V16h-1.548zm5.69 0V7.6h3.756c.944 0 1.68.188 2.208.564.528.368.792.9.792 1.596 0 .688-.252 1.22-.756 1.596-.504.368-1.168.552-1.992.552l.216-.432c.936 0 1.66.188 2.172.564.512.376.768.92.768 1.632 0 .728-.268 1.3-.804 1.716-.536.408-1.328.612-2.376.612h-3.984zm1.536-1.2h2.4c.544 0 .956-.1 1.236-.3.28-.208.42-.524.42-.948 0-.424-.14-.732-.42-.924-.28-.2-.692-.3-1.236-.3h-2.4V14.8zm0-3.612h2.088c.504 0 .888-.1 1.152-.3.264-.208.396-.504.396-.888 0-.4-.132-.7-.396-.9-.264-.2-.648-.3-1.152-.3h-2.088v2.388zm11.305 4.932a4.93 4.93 0 01-1.812-.324 4.433 4.433 0 01-1.44-.9 4.162 4.162 0 01-.948-1.368 4.379 4.379 0 01-.336-1.728c0-.624.112-1.196.336-1.716.224-.528.54-.984.948-1.368a4.332 4.332 0 011.44-.912 4.897 4.897 0 011.8-.324c.656 0 1.256.108 1.8.324.552.216 1.032.52 1.44.912.408.384.724.84.948 1.368.224.52.336 1.092.336 1.716 0 .624-.112 1.2-.336 1.728-.224.528-.54.984-.948 1.368a4.433 4.433 0 01-1.44.9 4.803 4.803 0 01-1.788.324zm-.012-1.368c.424 0 .816-.072 1.176-.216.36-.144.672-.348.936-.612a3.024 3.024 0 00.84-2.124c0-.432-.076-.824-.228-1.176a2.754 2.754 0 00-.612-.936 2.67 2.67 0 00-.936-.624 3.138 3.138 0 00-1.176-.216c-.424 0-.816.072-1.176.216a2.824 2.824 0 00-.936.624 2.908 2.908 0 00-.624.936 3.08 3.08 0 00-.216 1.176c0 .424.072.816.216 1.176.152.36.36.676.624.948.264.264.576.468.936.612.36.144.752.216 1.176.216zM80.076 36.12a4.93 4.93 0 01-1.812-.324 4.433 4.433 0 01-1.44-.9 4.162 4.162 0 01-.948-1.368 4.379 4.379 0 01-.336-1.728c0-.624.112-1.196.336-1.716.224-.528.54-.984.948-1.368a4.332 4.332 0 011.44-.912 4.897 4.897 0 011.8-.324c.656 0 1.256.108 1.8.324.552.216 1.032.52 1.44.912.408.384.724.84.948 1.368.224.52.336 1.092.336 1.716 0 .624-.112 1.2-.336 1.728-.224.528-.54.984-.948 1.368a4.433 4.433 0 01-1.44.9 4.803 4.803 0 01-1.788.324zm-.012-1.368c.424 0 .816-.072 1.176-.216.36-.144.672-.348.936-.612a3.024 3.024 0 00.84-2.124c0-.432-.076-.824-.228-1.176a2.754 2.754 0 00-.612-.936 2.67 2.67 0 00-.936-.624 3.138 3.138 0 00-1.176-.216c-.424 0-.816.072-1.176.216a2.824 2.824 0 00-.936.624 2.908 2.908 0 00-.624.936 3.08 3.08 0 00-.216 1.176c0 .424.072.816.216 1.176.152.36.36.676.624.948.264.264.576.468.936.612.36.144.752.216 1.176.216zM86.324 36v-8.4h6.54v1.284h-5.003v2.064h2.484c1.008 0 1.772.212 2.292.636.528.416.792 1.024.792 1.824 0 .824-.292 1.464-.876 1.92-.576.448-1.392.672-2.448.672h-3.78zm1.537-1.2h2.16c.6 0 1.056-.116 1.368-.348.312-.232.468-.568.468-1.008 0-.864-.612-1.296-1.836-1.296h-2.16V34.8zm7.276 1.2v-8.4h3.456c.744 0 1.38.12 1.908.36.536.24.948.584 1.236 1.032.288.448.432.98.432 1.596 0 .616-.144 1.148-.432 1.596-.288.448-.7.792-1.236 1.032-.528.24-1.164.36-1.908.36H96l.696-.732V36h-1.56zm1.56-2.988L96 32.256h2.52c.688 0 1.204-.144 1.548-.432.352-.296.528-.708.528-1.236 0-.536-.176-.948-.528-1.236-.344-.288-.86-.432-1.548-.432H96l.696-.768v4.86zM102.155 36l3.78-8.4h1.536l3.792 8.4h-1.632l-3.252-7.572h.624L103.763 36h-1.608zm1.74-1.944l.42-1.224h4.536l.42 1.224h-5.376zm7.828 1.116l.504-1.14c.36.248.752.44 1.176.576.432.128.86.196 1.284.204.424.008.808-.04 1.152-.144.352-.104.632-.26.84-.468.208-.208.312-.468.312-.78 0-.376-.156-.656-.468-.84-.304-.192-.72-.288-1.248-.288h-1.956v-1.224h1.836c.472 0 .836-.096 1.092-.288a.915.915 0 00.396-.78.91.91 0 00-.264-.672c-.168-.176-.4-.308-.696-.396a3.132 3.132 0 00-.984-.12c-.36 0-.736.056-1.128.168-.392.104-.764.26-1.116.468l-.492-1.26a6.106 6.106 0 013.348-.684 4.376 4.376 0 011.464.372c.44.2.792.464 1.056.792.264.32.396.7.396 1.14 0 .4-.108.756-.324 1.068a2.05 2.05 0 01-.864.708c-.368.168-.796.252-1.284.252l.06-.384c.552 0 1.032.096 1.44.288.416.184.736.44.96.768.232.328.348.708.348 1.14 0 .408-.104.772-.312 1.092a2.626 2.626 0 01-.852.792c-.36.208-.772.364-1.236.468a5.851 5.851 0 01-1.464.108 6.441 6.441 0 01-1.536-.264 5.61 5.61 0 01-1.44-.672zm12.521.948a4.93 4.93 0 01-1.812-.324 4.433 4.433 0 01-1.44-.9 4.162 4.162 0 01-.948-1.368 4.379 4.379 0 01-.336-1.728c0-.624.112-1.196.336-1.716.224-.528.54-.984.948-1.368a4.332 4.332 0 011.44-.912 4.897 4.897 0 011.8-.324c.656 0 1.256.108 1.8.324.552.216 1.032.52 1.44.912.408.384.724.84.948 1.368.224.52.336 1.092.336 1.716 0 .624-.112 1.2-.336 1.728-.224.528-.54.984-.948 1.368a4.433 4.433 0 01-1.44.9 4.803 4.803 0 01-1.788.324zm-.012-1.368c.424 0 .816-.072 1.176-.216.36-.144.672-.348.936-.612a3.024 3.024 0 00.84-2.124c0-.432-.076-.824-.228-1.176a2.754 2.754 0 00-.612-.936 2.67 2.67 0 00-.936-.624 3.138 3.138 0 00-1.176-.216c-.424 0-.816.072-1.176.216a2.824 2.824 0 00-.936.624 2.908 2.908 0 00-.624.936 3.08 3.08 0 00-.216 1.176c0 .424.072.816.216 1.176.152.36.36.676.624.948.264.264.576.468.936.612.36.144.752.216 1.176.216zM130.493 36v-8.4h3.756c.944 0 1.68.188 2.208.564.528.368.792.9.792 1.596 0 .688-.252 1.22-.756 1.596-.504.368-1.168.552-1.992.552l.216-.432c.936 0 1.66.188 2.172.564.512.376.768.92.768 1.632 0 .728-.268 1.3-.804 1.716-.536.408-1.328.612-2.376.612h-3.984zm1.536-1.2h2.4c.544 0 .956-.1 1.236-.3.28-.208.42-.524.42-.948 0-.424-.14-.732-.42-.924-.28-.2-.692-.3-1.236-.3h-2.4V34.8zm0-3.612h2.088c.504 0 .888-.1 1.152-.3.264-.208.396-.504.396-.888 0-.4-.132-.7-.396-.9-.264-.2-.648-.3-1.152-.3h-2.088v2.388zM138.366 36l3.78-8.4h1.536l3.792 8.4h-1.632l-3.252-7.572h.624L139.974 36h-1.608zm1.74-1.944l.42-1.224h4.536l.42 1.224h-5.376zm14.56-6.456h1.56V36h-1.56v-8.4zm-4.344 8.4h-1.56v-8.4h1.56V36zm4.464-3.6h-4.596v-1.332h4.596V32.4zm3.808 3.6v-8.4h1.536v5.964l4.512-5.964h1.452V36h-1.536v-5.952L160.046 36h-1.452zm14.739 0v-2.688l.384.348h-2.46c-.704 0-1.312-.116-1.824-.348a2.688 2.688 0 01-1.164-1.02c-.272-.448-.408-.984-.408-1.608 0-.648.144-1.2.432-1.656a2.73 2.73 0 011.224-1.056c.528-.248 1.148-.372 1.86-.372h3.492V36h-1.536zm-5.448 0l2.076-3h1.572l-2.004 3h-1.644zm5.448-3.192v-4.32l.384.432h-2.292c-.64 0-1.132.148-1.476.444-.336.288-.504.72-.504 1.296 0 .552.16.98.48 1.284.328.296.808.444 1.44.444h2.352l-.384.42zM180.567 36v-8.4h1.536v5.964l4.512-5.964h1.452V36h-1.536v-5.952L182.019 36h-1.452zm19.076-8.4h1.56V36h-1.56v-8.4zm-4.344 8.4h-1.56v-8.4h1.56V36zm4.464-3.6h-4.596v-1.332h4.596V32.4zm2.728 3.6l3.78-8.4h1.536l3.792 8.4h-1.632l-3.252-7.572h.624L204.099 36h-1.608zm1.74-1.944l.42-1.224h4.536l.42 1.224h-5.376zm8.354.624c.44.152.828.192 1.164.12.336-.072.636-.316.9-.732l.408-.636.156-.168 2.928-5.664h1.536l-3.648 6.78c-.296.568-.648 1-1.056 1.296-.408.296-.848.46-1.32.492-.464.04-.948-.048-1.452-.264l.384-1.224zm2.592-.072l-3.744-7.008h1.668l2.928 5.808-.852 1.2zM226.318 36l-2.844-4.092 1.26-.78L228.082 36h-1.764zm-5.556 0v-8.4h1.536V36h-1.536zm1.068-3.54v-1.344h2.832v1.344h-2.832zm3.048-.48l-1.428-.192 2.868-4.188h1.656l-3.096 4.38zm4.275 4.02v-8.4h1.536v5.964l4.512-5.964h1.452V36h-1.536v-5.952L230.605 36h-1.452zM76.176 56v-8.4h3.456c.744 0 1.38.12 1.908.36.536.24.948.584 1.236 1.032.288.448.432.98.432 1.596 0 .616-.144 1.148-.432 1.596-.288.448-.7.792-1.236 1.032-.528.24-1.164.36-1.908.36H77.04l.696-.732V56h-1.56zm1.56-2.988l-.696-.756h2.52c.688 0 1.204-.144 1.548-.432.352-.296.528-.708.528-1.236 0-.536-.176-.948-.528-1.236-.344-.288-.86-.432-1.548-.432h-2.52l.696-.768v4.86zm8.388-1.92H90.3v1.284h-4.176v-1.284zm.12 3.6h4.74V56h-6.3v-8.4h6.132v1.308h-4.572v5.784zm10.343 1.428a5.03 5.03 0 01-1.788-.312 4.464 4.464 0 01-1.428-.9 4.216 4.216 0 01-.936-1.38 4.379 4.379 0 01-.336-1.728c0-.624.112-1.2.336-1.728.224-.528.54-.984.948-1.368a4.205 4.205 0 011.428-.9 4.803 4.803 0 011.788-.324c.688 0 1.316.12 1.884.36.568.232 1.048.58 1.44 1.044l-1.008.948a2.976 2.976 0 00-1.02-.732 2.966 2.966 0 00-1.224-.252c-.44 0-.844.072-1.212.216-.36.144-.676.348-.948.612a2.908 2.908 0 00-.624.936c-.144.36-.216.756-.216 1.188 0 .432.072.828.216 1.188.152.36.36.672.624.936.272.264.588.468.948.612.368.144.772.216 1.212.216.44 0 .848-.08 1.224-.24.376-.168.716-.42 1.02-.756l1.008.96a3.843 3.843 0 01-1.44 1.044c-.568.24-1.2.36-1.896.36zm4.796-.12v-8.4h7.428V56h-1.536v-7.464l.36.384h-5.076l.36-.384V56h-1.536zm9.917-1.32c.44.152.828.192 1.164.12.336-.072.636-.316.9-.732l.408-.636.156-.168 2.928-5.664h1.536l-3.648 6.78c-.296.568-.648 1-1.056 1.296-.408.296-.848.46-1.32.492-.464.04-.948-.048-1.452-.264l.384-1.224zm2.592-.072l-3.744-7.008h1.668l2.928 5.808-.852 1.2zM119.489 56v-8.4h6.54v1.284h-5.004v2.064h2.484c1.008 0 1.772.212 2.292.636.528.416.792 1.024.792 1.824 0 .824-.292 1.464-.876 1.92-.576.448-1.392.672-2.448.672h-3.78zm1.536-1.2h2.16c.6 0 1.056-.116 1.368-.348.312-.232.468-.568.468-1.008 0-.864-.612-1.296-1.836-1.296h-2.16V54.8zm6.909 1.32c-.136 0-.272-.012-.408-.036a19.99 19.99 0 01-.444-.084l.108-1.356c.112.032.232.048.36.048a.948.948 0 00.804-.408c.2-.28.344-.688.432-1.224.088-.536.148-1.196.18-1.98l.12-3.48h6.18V56h-1.536v-7.464l.36.384h-3.996l.336-.396-.084 2.496c-.024.832-.08 1.564-.168 2.196-.088.632-.224 1.164-.408 1.596-.176.424-.412.748-.708.972-.296.224-.672.336-1.128.336zm9.707-.12v-8.4h1.536v5.964l4.512-5.964h1.452V56h-1.536v-5.952L139.093 56h-1.452zm15.411 0l-2.844-4.092 1.26-.78L154.816 56h-1.764zm-5.556 0v-8.4h1.536V56h-1.536zm1.068-3.54v-1.344h2.832v1.344h-2.832zm3.048-.48l-1.428-.192 2.868-4.188h1.656l-3.096 4.38zm4.275 4.02v-8.4h1.536v5.964l4.512-5.964h1.452V56h-1.536v-5.952L157.339 56h-1.452zm13.184 0v-8.4h6.54v1.284h-5.004v2.064h2.484c1.008 0 1.772.212 2.292.636.528.416.792 1.024.792 1.824 0 .824-.292 1.464-.876 1.92-.576.448-1.392.672-2.448.672h-3.78zm1.536-1.2h2.16c.6 0 1.056-.116 1.368-.348.312-.232.468-.568.468-1.008 0-.864-.612-1.296-1.836-1.296h-2.16V54.8zm7.103-.12c.44.152.828.192 1.164.12.336-.072.636-.316.9-.732l.408-.636.156-.168 2.928-5.664h1.536l-3.648 6.78c-.296.568-.648 1-1.056 1.296-.408.296-.848.46-1.32.492-.464.04-.948-.048-1.452-.264l.384-1.224zm2.592-.072l-3.744-7.008h1.668l2.928 5.808-.852 1.2zM185.887 56v-8.4h3.456c.744 0 1.38.12 1.908.36.536.24.948.584 1.236 1.032.288.448.432.98.432 1.596 0 .616-.144 1.148-.432 1.596-.288.448-.7.792-1.236 1.032-.528.24-1.164.36-1.908.36h-2.592l.696-.732V56h-1.56zm1.56-2.988l-.696-.756h2.52c.688 0 1.204-.144 1.548-.432.352-.296.528-.708.528-1.236 0-.536-.176-.948-.528-1.236-.344-.288-.86-.432-1.548-.432h-2.52l.696-.768v4.86zM199.091 56v-2.688l.384.348h-2.46c-.704 0-1.312-.116-1.824-.348a2.688 2.688 0 01-1.164-1.02c-.272-.448-.408-.984-.408-1.608 0-.648.144-1.2.432-1.656a2.73 2.73 0 011.224-1.056c.528-.248 1.148-.372 1.86-.372h3.492V56h-1.536zm-5.448 0l2.076-3h1.572l-2.004 3h-1.644zm5.448-3.192v-4.32l.384.432h-2.292c-.64 0-1.132.148-1.476.444-.336.288-.504.72-.504 1.296 0 .552.16.98.48 1.284.328.296.808.444 1.44.444h2.352l-.384.42zM204.76 56v-7.464l.372.384h-3.144V47.6h7.104v1.32h-3.144l.36-.384V56h-1.548zm5.69 0v-8.4h1.536v5.964l4.512-5.964h1.452V56h-1.536v-5.952L211.902 56h-1.452zm14.739 0v-2.688l.384.348h-2.46c-.704 0-1.312-.116-1.824-.348a2.688 2.688 0 01-1.164-1.02c-.272-.448-.408-.984-.408-1.608 0-.648.144-1.2.432-1.656a2.73 2.73 0 011.224-1.056c.528-.248 1.148-.372 1.86-.372h3.492V56h-1.536zm-5.448 0l2.076-3h1.572l-2.004 3h-1.644zm5.448-3.192v-4.32l.384.432h-2.292c-.64 0-1.132.148-1.476.444-.336.288-.504.72-.504 1.296 0 .552.16.98.48 1.284.328.296.808.444 1.44.444h2.352l-.384.42zM10.214 1.859c.47.174 1.027.37 1.23.424l.374.097-.032 4.327c-.032 4.217-.032 4.326-.257 4.565-.3.326-.3 1.032 0 1.434.171.24.225.5.246 1.338.043 1.162.214 1.5.738 1.5.514 0 .642-.283.642-1.403 0-.924.022-1.043.267-1.337.193-.239.268-.445.268-.793 0-.348-.075-.554-.268-.794l-.267-.326V6.913c0-2.185.022-3.978.043-3.978.043 0 2.973 1.043 3.732 1.326l.29.109v9.652L30.245 14l13.016-.033.032-4.837.022-4.837.94-.347c.514-.185 2.204-.794 3.765-1.348 1.562-.544 2.856-1.011 2.877-1.033.022-.022-9.315-.043-20.748-.043l-20.792.01.856.327zm6.225 30.782l.01 14.479.792.76a341.09 341.09 0 002.973 2.816c3.84 3.608 6.652 6.271 7.733 7.315.92.902 1.283 1.152 1.262.87-.011-.044-.011-6.74-.011-14.892l-.01-14.804-4.46-3.88c-2.45-2.142-5.306-4.62-6.332-5.522-1.027-.892-1.893-1.63-1.925-1.63-.032 0-.043 6.52-.032 14.488zM43.465 18.62c-.289.26-2.396 2.108-4.695 4.108-5.786 5.033-7.144 6.228-7.294 6.424-.118.142-.16 8.576-.14 27.837v2.163l.578-.532c.321-.283 2.279-2.13 4.353-4.098 6.845-6.468 7.605-7.185 7.7-7.24.097-.065.183-29.13.087-29.13-.043 0-.31.218-.589.468z" fill="#666"/><path d="M9.433 35.717l.032 15.174 3.957 1.62c2.182.891 4.61 1.88 5.401 2.206.792.327 2.097.87 2.888 1.196.792.337 1.487.598 1.54.576.054-.022-.428-.5-1.07-1.065-1.336-1.185-2.598-2.337-6.235-5.641l-2.566-2.337-.032-12.609-.033-12.609-1.871-.837c-1.027-.456-1.904-.837-1.957-.837-.043-.01-.065 6.816-.054 15.163zM49.09 21.402l-1.87.837-.033 12.576-.021 12.576-.45.413a449.19 449.19 0 00-2.17 1.979 139.82 139.82 0 01-2.193 2c-.92.826-2.182 1.967-2.995 2.728a96.799 96.799 0 01-1.476 1.348c-.363.326-.641.608-.62.641.043.033 2.289-.848 3.112-1.24.182-.075 2.653-1.097 5.508-2.26l5.188-2.109.032-15.174c.01-8.347-.011-15.173-.054-15.163-.053.011-.93.392-1.957.848z" fill="#666"/><path d="M2.32 25.185c-.074.12-.031 30.12.044 30.185.032.032.727.163 1.55.282 2.76.402 4.557.685 7.049 1.087.353.065 1.144.185 1.764.272.62.087 1.562.239 2.086.326.941.163 4.513.706 4.62.706.032 0 0-.076-.075-.163-.075-.087-.192-.163-.256-.163-.129 0-5.54-2.326-9.209-3.967-1.112-.49-2.257-1-2.545-1.12l-.503-.228V25.815l-.663-.13c-1.027-.196-3.433-.576-3.637-.576-.096 0-.203.032-.224.076zm53.67.206c-.824.142-1.68.294-1.904.337l-.407.087-.021 13.305-.032 13.315-1.22.532c-1.668.729-4.834 2.12-6.844 3.011-.91.413-2.236.968-2.942 1.25-.706.283-1.358.587-1.444.674-.181.174-.288.185 2.407-.239.941-.152 2.503-.391 3.476-.543.973-.153 2.053-.326 2.406-.38 1.091-.175 3.38-.534 4.225-.653.438-.065 1.07-.163 1.39-.217.321-.055 1.155-.174 1.85-.283l1.252-.185V25.11l-.342.01c-.193.011-1.027.131-1.85.272z" fill="#666"/></svg>