<svg width="47" height="46" fill="none" xmlns="http://www.w3.org/2000/svg"><g clip-path="url(#clip0_264_16)" fill="#666"><path d="M40.826 36.8h-36.8a3.454 3.454 0 01-3.45-3.45v-18.4a3.454 3.454 0 013.45-3.45h36.8a3.454 3.454 0 013.45 3.45v18.4a3.454 3.454 0 01-3.45 3.45zm-36.8-23a1.15 1.15 0 00-1.15 1.15v18.4c0 .635.515 1.15 1.15 1.15h36.8a1.15 1.15 0 001.15-1.15v-18.4a1.15 1.15 0 00-1.15-1.15h-36.8z"/><path d="M8.626 18.4h-2.3a1.15 1.15 0 010-2.3h2.3a1.15 1.15 0 010 2.3zm29.9 0h-2.3a1.15 1.15 0 010-2.3h2.3a1.15 1.15 0 010 2.3zm-27.6 4.6h-4.6a1.15 1.15 0 010-2.3h4.6a1.15 1.15 0 010 2.3zm-2.3 9.2h-2.3a1.15 1.15 0 010-2.3h2.3a1.15 1.15 0 010 2.3zm18.4 0h-13.8a1.15 1.15 0 010-2.3h13.8a1.15 1.15 0 010 2.3zm6.9 0h-2.3a1.15 1.15 0 010-2.3h2.3a1.15 1.15 0 010 2.3zm4.6-4.6h-6.9a1.15 1.15 0 010-2.3h5.75v-3.45a1.15 1.15 0 012.3 0v4.6a1.15 1.15 0 01-1.15 1.15zm-25.3 0h-6.9a1.15 1.15 0 010-2.3h6.9a1.15 1.15 0 010 2.3zm1.15-10.35a1.15 1.15 0 11-2.3 0 1.15 1.15 0 012.3 0zm4.6 0a1.15 1.15 0 11-2.3 0 1.15 1.15 0 012.3 0zm4.6 0a1.15 1.15 0 11-2.3 0 1.15 1.15 0 012.3 0zm4.6 0a1.15 1.15 0 11-2.3 0 1.15 1.15 0 012.3 0zm4.6 0a1.15 1.15 0 11-2.3 0 1.15 1.15 0 012.3 0zm-16.1 4.6a1.15 1.15 0 11-2.3 0 1.15 1.15 0 012.3 0zm4.6 0a1.15 1.15 0 11-2.3 0 1.15 1.15 0 012.3 0zm4.6 0a1.15 1.15 0 11-2.3 0 1.15 1.15 0 012.3 0zm4.6 0a1.15 1.15 0 11-2.3 0 1.15 1.15 0 012.3 0z"/><path d="M35.076 21.85a1.15 1.15 0 11-2.3 0 1.15 1.15 0 012.3 0zm-16.1 4.6a1.15 1.15 0 11-2.3 0 1.15 1.15 0 012.3 0zm4.6 0a1.15 1.15 0 11-2.3 0 1.15 1.15 0 012.3 0zm4.6 0a1.15 1.15 0 11-2.3 0 1.15 1.15 0 012.3 0z"/></g><defs><clipPath id="clip0_264_16"><path fill="#fff" transform="translate(.576)" d="M0 0h46v46H0z"/></clipPath></defs></svg>