<svg width="20" height="20" fill="none" xmlns="http://www.w3.org/2000/svg"><g clip-path="url(#clip0_264_42)"><path d="M18.869 19.162l-5.943-6.484A7.448 7.448 0 0015.001 7.5c0-2.003-.78-3.887-2.197-5.303A7.454 7.454 0 007.501 0C5.498 0 3.614.78 2.198 2.197A7.454 7.454 0 00.001 7.5c0 2.003.78 3.887 2.197 5.303A7.454 7.454 0 007.501 15a7.441 7.441 0 004.688-1.645l5.943 6.483a.497.497 0 00.707.031.5.5 0 00.031-.706l-.001-.001zM1 7.5C1 3.916 3.916 1 7.5 1S14 3.916 14 7.5 11.084 14 7.5 14A6.508 6.508 0 011 7.5z" fill="#fff"/></g><defs><clipPath id="clip0_264_42"><path fill="#fff" d="M0 0h20v20H0z"/></clipPath></defs></svg>