<svg width="8" height="15" viewBox="0 0 8 15" fill="none" xmlns="http://www.w3.org/2000/svg">
<path d="M5.9542 14.63L0.335877 8.4417C0.21374 8.30717 0.12743 8.16143 0.0769462 8.00448C0.0256485 7.84753 0 7.67937 0 7.5C0 7.32063 0.0256485 7.15247 0.0769462 6.99551C0.12743 6.83856 0.21374 6.69282 0.335877 6.5583L5.9542 0.369955C6.17812 0.123318 6.4631 0 6.80916 0C7.15522 0 7.4402 0.123318 7.66412 0.369955C7.88804 0.616591 8 0.930493 8 1.31166C8 1.69282 7.88804 2.00673 7.66412 2.25336L2.90076 7.5L7.66412 12.7466C7.88804 12.9933 8 13.3072 8 13.6883C8 14.0695 7.88804 14.3834 7.66412 14.63C7.4402 14.8767 7.15522 15 6.80916 15C6.4631 15 6.17812 14.8767 5.9542 14.63Z" fill="#CCCCCC"/>
</svg>
