<svg width="8" height="15" viewBox="0 0 8 15" fill="none" xmlns="http://www.w3.org/2000/svg">
<path d="M2.0458 0.369958L7.66412 6.5583C7.78626 6.69283 7.87257 6.83857 7.92305 6.99552C7.97435 7.15247 8 7.32063 8 7.5C8 7.67937 7.97435 7.84753 7.92305 8.00449C7.87257 8.16144 7.78626 8.30718 7.66412 8.4417L2.0458 14.63C1.82188 14.8767 1.5369 15 1.19084 15C0.844784 15 0.559797 14.8767 0.335878 14.63C0.11196 14.3834 0 14.0695 0 13.6883C0 13.3072 0.11196 12.9933 0.335878 12.7466L5.09924 7.5L0.335878 2.25336C0.11196 2.00673 0 1.69283 0 1.31166C0 0.930494 0.11196 0.616594 0.335878 0.369958C0.559797 0.123321 0.844784 0 1.19084 0C1.5369 0 1.82188 0.123321 2.0458 0.369958Z" fill="#666666"/>
</svg>
