<svg width="246" height="61" viewBox="0 0 246 61" fill="none" xmlns="http://www.w3.org/2000/svg">
<path d="M76.188 16V7.6H77.46L81.144 13.732H80.46L84.084 7.6H85.356L85.38 16H83.892L83.88 9.916H84.192L81.12 15.04H80.424L77.304 9.916H77.664V16H76.188ZM87.7427 16V7.6H89.2787V13.564L93.7907 7.6H95.2427V16H93.7067V10.048L89.1947 16H87.7427ZM103.502 7.6H105.062V16H103.502V7.6ZM99.1579 16H97.5979V7.6H99.1579V16ZM103.622 12.4H99.0259V11.068H103.622V12.4ZM107.43 16V7.6H108.966V13.564L113.478 7.6H114.93V16H113.394V10.048L108.882 16H107.43ZM121.149 16.12C120.509 16.12 119.913 16.016 119.361 15.808C118.817 15.592 118.341 15.292 117.933 14.908C117.533 14.516 117.221 14.056 116.997 13.528C116.773 13 116.661 12.424 116.661 11.8C116.661 11.176 116.773 10.6 116.997 10.072C117.221 9.544 117.537 9.088 117.945 8.704C118.353 8.312 118.829 8.012 119.373 7.804C119.917 7.588 120.513 7.48 121.161 7.48C121.849 7.48 122.477 7.6 123.045 7.84C123.613 8.072 124.093 8.42 124.485 8.884L123.477 9.832C123.173 9.504 122.833 9.26 122.457 9.1C122.081 8.932 121.673 8.848 121.233 8.848C120.793 8.848 120.389 8.92 120.021 9.064C119.661 9.208 119.345 9.412 119.073 9.676C118.809 9.94 118.601 10.252 118.449 10.612C118.305 10.972 118.233 11.368 118.233 11.8C118.233 12.232 118.305 12.628 118.449 12.988C118.601 13.348 118.809 13.66 119.073 13.924C119.345 14.188 119.661 14.392 120.021 14.536C120.389 14.68 120.793 14.752 121.233 14.752C121.673 14.752 122.081 14.672 122.457 14.512C122.833 14.344 123.173 14.092 123.477 13.756L124.485 14.716C124.093 15.172 123.613 15.52 123.045 15.76C122.477 16 121.845 16.12 121.149 16.12ZM127.604 16V8.536L127.976 8.92H124.832V7.6H131.936V8.92H128.792L129.152 8.536V16H127.604ZM134.721 11.092H138.897V12.376H134.721V11.092ZM134.841 14.692H139.581V16H133.281V7.6H139.413V8.908H134.841V14.692ZM141.321 16V7.6H144.777C145.521 7.6 146.157 7.72 146.685 7.96C147.221 8.2 147.633 8.544 147.921 8.992C148.209 9.44 148.353 9.972 148.353 10.588C148.353 11.204 148.209 11.736 147.921 12.184C147.633 12.632 147.221 12.976 146.685 13.216C146.157 13.456 145.521 13.576 144.777 13.576H142.185L142.881 12.844V16H141.321ZM142.881 13.012L142.185 12.256H144.705C145.393 12.256 145.909 12.112 146.253 11.824C146.605 11.528 146.781 11.116 146.781 10.588C146.781 10.052 146.605 9.64 146.253 9.352C145.909 9.064 145.393 8.92 144.705 8.92H142.185L142.881 8.152V13.012ZM153.81 16.12C153.17 16.12 152.574 16.016 152.022 15.808C151.478 15.592 151.002 15.292 150.594 14.908C150.194 14.516 149.882 14.056 149.658 13.528C149.434 13 149.322 12.424 149.322 11.8C149.322 11.176 149.434 10.6 149.658 10.072C149.882 9.544 150.198 9.088 150.606 8.704C151.014 8.312 151.49 8.012 152.034 7.804C152.578 7.588 153.174 7.48 153.822 7.48C154.51 7.48 155.138 7.6 155.706 7.84C156.274 8.072 156.754 8.42 157.146 8.884L156.138 9.832C155.834 9.504 155.494 9.26 155.118 9.1C154.742 8.932 154.334 8.848 153.894 8.848C153.454 8.848 153.05 8.92 152.682 9.064C152.322 9.208 152.006 9.412 151.734 9.676C151.47 9.94 151.262 10.252 151.11 10.612C150.966 10.972 150.894 11.368 150.894 11.8C150.894 12.232 150.966 12.628 151.11 12.988C151.262 13.348 151.47 13.66 151.734 13.924C152.006 14.188 152.322 14.392 152.682 14.536C153.05 14.68 153.454 14.752 153.894 14.752C154.334 14.752 154.742 14.672 155.118 14.512C155.494 14.344 155.834 14.092 156.138 13.756L157.146 14.716C156.754 15.172 156.274 15.52 155.706 15.76C155.138 16 154.506 16.12 153.81 16.12ZM160.264 16V8.536L160.636 8.92H157.492V7.6H164.596V8.92H161.452L161.812 8.536V16H160.264ZM165.954 16V7.6H169.71C170.654 7.6 171.39 7.788 171.918 8.164C172.446 8.532 172.71 9.064 172.71 9.76C172.71 10.448 172.458 10.98 171.954 11.356C171.45 11.724 170.786 11.908 169.962 11.908L170.178 11.476C171.114 11.476 171.838 11.664 172.35 12.04C172.862 12.416 173.118 12.96 173.118 13.672C173.118 14.4 172.85 14.972 172.314 15.388C171.778 15.796 170.986 16 169.938 16H165.954ZM167.49 14.8H169.89C170.434 14.8 170.846 14.7 171.126 14.5C171.406 14.292 171.546 13.976 171.546 13.552C171.546 13.128 171.406 12.82 171.126 12.628C170.846 12.428 170.434 12.328 169.89 12.328H167.49V14.8ZM167.49 11.188H169.578C170.082 11.188 170.466 11.088 170.73 10.888C170.994 10.68 171.126 10.384 171.126 10C171.126 9.6 170.994 9.3 170.73 9.1C170.466 8.9 170.082 8.8 169.578 8.8H167.49V11.188ZM178.795 16.12C178.139 16.12 177.535 16.012 176.983 15.796C176.431 15.58 175.951 15.28 175.543 14.896C175.135 14.504 174.819 14.048 174.595 13.528C174.371 13 174.259 12.424 174.259 11.8C174.259 11.176 174.371 10.604 174.595 10.084C174.819 9.556 175.135 9.1 175.543 8.716C175.951 8.324 176.431 8.02 176.983 7.804C177.535 7.588 178.135 7.48 178.783 7.48C179.439 7.48 180.039 7.588 180.583 7.804C181.135 8.02 181.615 8.324 182.023 8.716C182.431 9.1 182.747 9.556 182.971 10.084C183.195 10.604 183.307 11.176 183.307 11.8C183.307 12.424 183.195 13 182.971 13.528C182.747 14.056 182.431 14.512 182.023 14.896C181.615 15.28 181.135 15.58 180.583 15.796C180.039 16.012 179.443 16.12 178.795 16.12ZM178.783 14.752C179.207 14.752 179.599 14.68 179.959 14.536C180.319 14.392 180.631 14.188 180.895 13.924C181.159 13.652 181.363 13.34 181.507 12.988C181.659 12.628 181.735 12.232 181.735 11.8C181.735 11.368 181.659 10.976 181.507 10.624C181.363 10.264 181.159 9.952 180.895 9.688C180.631 9.416 180.319 9.208 179.959 9.064C179.599 8.92 179.207 8.848 178.783 8.848C178.359 8.848 177.967 8.92 177.607 9.064C177.255 9.208 176.943 9.416 176.671 9.688C176.407 9.952 176.199 10.264 176.047 10.624C175.903 10.976 175.831 11.368 175.831 11.8C175.831 12.224 175.903 12.616 176.047 12.976C176.199 13.336 176.407 13.652 176.671 13.924C176.935 14.188 177.247 14.392 177.607 14.536C177.967 14.68 178.359 14.752 178.783 14.752ZM80.076 36.12C79.42 36.12 78.816 36.012 78.264 35.796C77.712 35.58 77.232 35.28 76.824 34.896C76.416 34.504 76.1 34.048 75.876 33.528C75.652 33 75.54 32.424 75.54 31.8C75.54 31.176 75.652 30.604 75.876 30.084C76.1 29.556 76.416 29.1 76.824 28.716C77.232 28.324 77.712 28.02 78.264 27.804C78.816 27.588 79.416 27.48 80.064 27.48C80.72 27.48 81.32 27.588 81.864 27.804C82.416 28.02 82.896 28.324 83.304 28.716C83.712 29.1 84.028 29.556 84.252 30.084C84.476 30.604 84.588 31.176 84.588 31.8C84.588 32.424 84.476 33 84.252 33.528C84.028 34.056 83.712 34.512 83.304 34.896C82.896 35.28 82.416 35.58 81.864 35.796C81.32 36.012 80.724 36.12 80.076 36.12ZM80.064 34.752C80.488 34.752 80.88 34.68 81.24 34.536C81.6 34.392 81.912 34.188 82.176 33.924C82.44 33.652 82.644 33.34 82.788 32.988C82.94 32.628 83.016 32.232 83.016 31.8C83.016 31.368 82.94 30.976 82.788 30.624C82.644 30.264 82.44 29.952 82.176 29.688C81.912 29.416 81.6 29.208 81.24 29.064C80.88 28.92 80.488 28.848 80.064 28.848C79.64 28.848 79.248 28.92 78.888 29.064C78.536 29.208 78.224 29.416 77.952 29.688C77.688 29.952 77.48 30.264 77.328 30.624C77.184 30.976 77.112 31.368 77.112 31.8C77.112 32.224 77.184 32.616 77.328 32.976C77.48 33.336 77.688 33.652 77.952 33.924C78.216 34.188 78.528 34.392 78.888 34.536C79.248 34.68 79.64 34.752 80.064 34.752ZM86.3247 36V27.6H92.8647V28.884H87.8607V30.948H90.3447C91.3527 30.948 92.1167 31.16 92.6367 31.584C93.1647 32 93.4287 32.608 93.4287 33.408C93.4287 34.232 93.1367 34.872 92.5527 35.328C91.9767 35.776 91.1607 36 90.1047 36H86.3247ZM87.8607 34.8H90.0207C90.6207 34.8 91.0767 34.684 91.3887 34.452C91.7007 34.22 91.8567 33.884 91.8567 33.444C91.8567 32.58 91.2447 32.148 90.0207 32.148H87.8607V34.8ZM95.1369 36V27.6H98.5929C99.3369 27.6 99.9729 27.72 100.501 27.96C101.037 28.2 101.449 28.544 101.737 28.992C102.025 29.44 102.169 29.972 102.169 30.588C102.169 31.204 102.025 31.736 101.737 32.184C101.449 32.632 101.037 32.976 100.501 33.216C99.9729 33.456 99.3369 33.576 98.5929 33.576H96.0009L96.6969 32.844V36H95.1369ZM96.6969 33.012L96.0009 32.256H98.5209C99.2089 32.256 99.7249 32.112 100.069 31.824C100.421 31.528 100.597 31.116 100.597 30.588C100.597 30.052 100.421 29.64 100.069 29.352C99.7249 29.064 99.2089 28.92 98.5209 28.92H96.0009L96.6969 28.152V33.012ZM102.155 36L105.935 27.6H107.471L111.263 36H109.631L106.379 28.428H107.003L103.763 36H102.155ZM103.895 34.056L104.315 32.832H108.851L109.271 34.056H103.895ZM111.723 35.172L112.227 34.032C112.587 34.28 112.979 34.472 113.403 34.608C113.835 34.736 114.263 34.804 114.687 34.812C115.111 34.82 115.495 34.772 115.839 34.668C116.191 34.564 116.471 34.408 116.679 34.2C116.887 33.992 116.991 33.732 116.991 33.42C116.991 33.044 116.835 32.764 116.523 32.58C116.219 32.388 115.803 32.292 115.275 32.292H113.319V31.068H115.155C115.627 31.068 115.991 30.972 116.247 30.78C116.511 30.588 116.643 30.328 116.643 30C116.643 29.728 116.555 29.504 116.379 29.328C116.211 29.152 115.979 29.02 115.683 28.932C115.395 28.844 115.067 28.804 114.699 28.812C114.339 28.812 113.963 28.868 113.571 28.98C113.179 29.084 112.807 29.24 112.455 29.448L111.963 28.188C112.491 27.908 113.043 27.712 113.619 27.6C114.203 27.488 114.767 27.456 115.311 27.504C115.855 27.552 116.343 27.676 116.775 27.876C117.215 28.076 117.567 28.34 117.831 28.668C118.095 28.988 118.227 29.368 118.227 29.808C118.227 30.208 118.119 30.564 117.903 30.876C117.695 31.18 117.407 31.416 117.039 31.584C116.671 31.752 116.243 31.836 115.755 31.836L115.815 31.452C116.367 31.452 116.847 31.548 117.255 31.74C117.671 31.924 117.991 32.18 118.215 32.508C118.447 32.836 118.563 33.216 118.563 33.648C118.563 34.056 118.459 34.42 118.251 34.74C118.043 35.052 117.759 35.316 117.399 35.532C117.039 35.74 116.627 35.896 116.163 36C115.699 36.096 115.211 36.132 114.699 36.108C114.187 36.084 113.675 35.996 113.163 35.844C112.659 35.692 112.179 35.468 111.723 35.172ZM124.244 36.12C123.588 36.12 122.984 36.012 122.432 35.796C121.88 35.58 121.4 35.28 120.992 34.896C120.584 34.504 120.268 34.048 120.044 33.528C119.82 33 119.708 32.424 119.708 31.8C119.708 31.176 119.82 30.604 120.044 30.084C120.268 29.556 120.584 29.1 120.992 28.716C121.4 28.324 121.88 28.02 122.432 27.804C122.984 27.588 123.584 27.48 124.232 27.48C124.888 27.48 125.488 27.588 126.032 27.804C126.584 28.02 127.064 28.324 127.472 28.716C127.88 29.1 128.196 29.556 128.42 30.084C128.644 30.604 128.756 31.176 128.756 31.8C128.756 32.424 128.644 33 128.42 33.528C128.196 34.056 127.88 34.512 127.472 34.896C127.064 35.28 126.584 35.58 126.032 35.796C125.488 36.012 124.892 36.12 124.244 36.12ZM124.232 34.752C124.656 34.752 125.048 34.68 125.408 34.536C125.768 34.392 126.08 34.188 126.344 33.924C126.608 33.652 126.812 33.34 126.956 32.988C127.108 32.628 127.184 32.232 127.184 31.8C127.184 31.368 127.108 30.976 126.956 30.624C126.812 30.264 126.608 29.952 126.344 29.688C126.08 29.416 125.768 29.208 125.408 29.064C125.048 28.92 124.656 28.848 124.232 28.848C123.808 28.848 123.416 28.92 123.056 29.064C122.704 29.208 122.392 29.416 122.12 29.688C121.856 29.952 121.648 30.264 121.496 30.624C121.352 30.976 121.28 31.368 121.28 31.8C121.28 32.224 121.352 32.616 121.496 32.976C121.648 33.336 121.856 33.652 122.12 33.924C122.384 34.188 122.696 34.392 123.056 34.536C123.416 34.68 123.808 34.752 124.232 34.752ZM130.493 36V27.6H134.249C135.193 27.6 135.929 27.788 136.457 28.164C136.985 28.532 137.249 29.064 137.249 29.76C137.249 30.448 136.997 30.98 136.493 31.356C135.989 31.724 135.325 31.908 134.501 31.908L134.717 31.476C135.653 31.476 136.377 31.664 136.889 32.04C137.401 32.416 137.657 32.96 137.657 33.672C137.657 34.4 137.389 34.972 136.853 35.388C136.317 35.796 135.525 36 134.477 36H130.493ZM132.029 34.8H134.429C134.973 34.8 135.385 34.7 135.665 34.5C135.945 34.292 136.085 33.976 136.085 33.552C136.085 33.128 135.945 32.82 135.665 32.628C135.385 32.428 134.973 32.328 134.429 32.328H132.029V34.8ZM132.029 31.188H134.117C134.621 31.188 135.005 31.088 135.269 30.888C135.533 30.68 135.665 30.384 135.665 30C135.665 29.6 135.533 29.3 135.269 29.1C135.005 28.9 134.621 28.8 134.117 28.8H132.029V31.188ZM138.366 36L142.146 27.6H143.682L147.474 36H145.842L142.59 28.428H143.214L139.974 36H138.366ZM140.106 34.056L140.526 32.832H145.062L145.482 34.056H140.106ZM154.666 27.6H156.226V36H154.666V27.6ZM150.322 36H148.762V27.6H150.322V36ZM154.786 32.4H150.19V31.068H154.786V32.4ZM158.594 36V27.6H160.13V33.564L164.642 27.6H166.094V36H164.558V30.048L160.046 36H158.594ZM173.333 36V33.312L173.717 33.66H171.257C170.553 33.66 169.945 33.544 169.433 33.312C168.929 33.072 168.541 32.732 168.269 32.292C167.997 31.844 167.861 31.308 167.861 30.684C167.861 30.036 168.005 29.484 168.293 29.028C168.581 28.564 168.989 28.212 169.517 27.972C170.045 27.724 170.665 27.6 171.377 27.6H174.869V36H173.333ZM167.885 36L169.961 33H171.533L169.529 36H167.885ZM173.333 32.808V28.488L173.717 28.92H171.425C170.785 28.92 170.293 29.068 169.949 29.364C169.613 29.652 169.445 30.084 169.445 30.66C169.445 31.212 169.605 31.64 169.925 31.944C170.253 32.24 170.733 32.388 171.365 32.388H173.717L173.333 32.808ZM180.567 36V27.6H182.103V33.564L186.615 27.6H188.067V36H186.531V30.048L182.019 36H180.567ZM199.643 27.6H201.203V36H199.643V27.6ZM195.299 36H193.739V27.6H195.299V36ZM199.763 32.4H195.167V31.068H199.763V32.4ZM202.491 36L206.271 27.6H207.807L211.599 36H209.967L206.715 28.428H207.339L204.099 36H202.491ZM204.231 34.056L204.651 32.832H209.187L209.607 34.056H204.231ZM212.585 34.68C213.025 34.832 213.413 34.872 213.749 34.8C214.085 34.728 214.385 34.484 214.649 34.068L215.057 33.432L215.213 33.264L218.141 27.6H219.677L216.029 34.38C215.733 34.948 215.381 35.38 214.973 35.676C214.565 35.972 214.125 36.136 213.653 36.168C213.189 36.208 212.705 36.12 212.201 35.904L212.585 34.68ZM215.177 34.608L211.433 27.6H213.101L216.029 33.408L215.177 34.608ZM226.318 36L223.474 31.908L224.734 31.128L228.082 36H226.318ZM220.762 36V27.6H222.298V36H220.762ZM221.83 32.46V31.116H224.662V32.46H221.83ZM224.878 31.98L223.45 31.788L226.318 27.6H227.974L224.878 31.98ZM229.153 36V27.6H230.689V33.564L235.201 27.6H236.653V36H235.117V30.048L230.605 36H229.153ZM76.176 56V47.6H79.632C80.376 47.6 81.012 47.72 81.54 47.96C82.076 48.2 82.488 48.544 82.776 48.992C83.064 49.44 83.208 49.972 83.208 50.588C83.208 51.204 83.064 51.736 82.776 52.184C82.488 52.632 82.076 52.976 81.54 53.216C81.012 53.456 80.376 53.576 79.632 53.576H77.04L77.736 52.844V56H76.176ZM77.736 53.012L77.04 52.256H79.56C80.248 52.256 80.764 52.112 81.108 51.824C81.46 51.528 81.636 51.116 81.636 50.588C81.636 50.052 81.46 49.64 81.108 49.352C80.764 49.064 80.248 48.92 79.56 48.92H77.04L77.736 48.152V53.012ZM86.1238 51.092H90.2998V52.376H86.1238V51.092ZM86.2438 54.692H90.9838V56H84.6838V47.6H90.8158V48.908H86.2438V54.692ZM96.5869 56.12C95.9469 56.12 95.3509 56.016 94.7989 55.808C94.2549 55.592 93.7789 55.292 93.3709 54.908C92.9709 54.516 92.6589 54.056 92.4349 53.528C92.2109 53 92.0989 52.424 92.0989 51.8C92.0989 51.176 92.2109 50.6 92.4349 50.072C92.6589 49.544 92.9749 49.088 93.3829 48.704C93.7909 48.312 94.2669 48.012 94.8109 47.804C95.3549 47.588 95.9509 47.48 96.5989 47.48C97.2869 47.48 97.9149 47.6 98.4829 47.84C99.0509 48.072 99.5309 48.42 99.9229 48.884L98.9149 49.832C98.6109 49.504 98.2709 49.26 97.8949 49.1C97.5189 48.932 97.1109 48.848 96.6709 48.848C96.2309 48.848 95.8269 48.92 95.4589 49.064C95.0989 49.208 94.7829 49.412 94.5109 49.676C94.2469 49.94 94.0389 50.252 93.8869 50.612C93.7429 50.972 93.6709 51.368 93.6709 51.8C93.6709 52.232 93.7429 52.628 93.8869 52.988C94.0389 53.348 94.2469 53.66 94.5109 53.924C94.7829 54.188 95.0989 54.392 95.4589 54.536C95.8269 54.68 96.2309 54.752 96.6709 54.752C97.1109 54.752 97.5189 54.672 97.8949 54.512C98.2709 54.344 98.6109 54.092 98.9149 53.756L99.9229 54.716C99.5309 55.172 99.0509 55.52 98.4829 55.76C97.9149 56 97.2829 56.12 96.5869 56.12ZM101.383 56V47.6H108.811V56H107.275V48.536L107.635 48.92H102.559L102.919 48.536V56H101.383ZM111.3 54.68C111.74 54.832 112.128 54.872 112.464 54.8C112.8 54.728 113.1 54.484 113.364 54.068L113.772 53.432L113.928 53.264L116.856 47.6H118.392L114.744 54.38C114.448 54.948 114.096 55.38 113.688 55.676C113.28 55.972 112.84 56.136 112.368 56.168C111.904 56.208 111.42 56.12 110.916 55.904L111.3 54.68ZM113.892 54.608L110.148 47.6H111.816L114.744 53.408L113.892 54.608ZM119.489 56V47.6H126.029V48.884H121.025V50.948H123.509C124.517 50.948 125.281 51.16 125.801 51.584C126.329 52 126.593 52.608 126.593 53.408C126.593 54.232 126.301 54.872 125.717 55.328C125.141 55.776 124.325 56 123.269 56H119.489ZM121.025 54.8H123.185C123.785 54.8 124.241 54.684 124.553 54.452C124.865 54.22 125.021 53.884 125.021 53.444C125.021 52.58 124.409 52.148 123.185 52.148H121.025V54.8ZM127.934 56.12C127.798 56.12 127.662 56.108 127.526 56.084C127.39 56.06 127.242 56.032 127.082 56L127.19 54.644C127.302 54.676 127.422 54.692 127.55 54.692C127.886 54.692 128.154 54.556 128.354 54.284C128.554 54.004 128.698 53.596 128.786 53.06C128.874 52.524 128.934 51.864 128.966 51.08L129.086 47.6H135.266V56H133.73V48.536L134.09 48.92H130.094L130.43 48.524L130.346 51.02C130.322 51.852 130.266 52.584 130.178 53.216C130.09 53.848 129.954 54.38 129.77 54.812C129.594 55.236 129.358 55.56 129.062 55.784C128.766 56.008 128.39 56.12 127.934 56.12ZM137.641 56V47.6H139.177V53.564L143.689 47.6H145.141V56H143.605V50.048L139.093 56H137.641ZM153.052 56L150.208 51.908L151.468 51.128L154.816 56H153.052ZM147.496 56V47.6H149.032V56H147.496ZM148.564 52.46V51.116H151.396V52.46H148.564ZM151.612 51.98L150.184 51.788L153.052 47.6H154.708L151.612 51.98ZM155.887 56V47.6H157.423V53.564L161.935 47.6H163.387V56H161.851V50.048L157.339 56H155.887ZM169.071 56V47.6H175.611V48.884H170.607V50.948H173.091C174.099 50.948 174.863 51.16 175.383 51.584C175.911 52 176.175 52.608 176.175 53.408C176.175 54.232 175.883 54.872 175.299 55.328C174.723 55.776 173.907 56 172.851 56H169.071ZM170.607 54.8H172.767C173.367 54.8 173.823 54.684 174.135 54.452C174.447 54.22 174.603 53.884 174.603 53.444C174.603 52.58 173.991 52.148 172.767 52.148H170.607V54.8ZM177.71 54.68C178.15 54.832 178.538 54.872 178.874 54.8C179.21 54.728 179.51 54.484 179.774 54.068L180.182 53.432L180.338 53.264L183.266 47.6H184.802L181.154 54.38C180.858 54.948 180.506 55.38 180.098 55.676C179.69 55.972 179.25 56.136 178.778 56.168C178.314 56.208 177.83 56.12 177.326 55.904L177.71 54.68ZM180.302 54.608L176.558 47.6H178.226L181.154 53.408L180.302 54.608ZM185.887 56V47.6H189.343C190.087 47.6 190.723 47.72 191.251 47.96C191.787 48.2 192.199 48.544 192.487 48.992C192.775 49.44 192.919 49.972 192.919 50.588C192.919 51.204 192.775 51.736 192.487 52.184C192.199 52.632 191.787 52.976 191.251 53.216C190.723 53.456 190.087 53.576 189.343 53.576H186.751L187.447 52.844V56H185.887ZM187.447 53.012L186.751 52.256H189.271C189.959 52.256 190.475 52.112 190.819 51.824C191.171 51.528 191.347 51.116 191.347 50.588C191.347 50.052 191.171 49.64 190.819 49.352C190.475 49.064 189.959 48.92 189.271 48.92H186.751L187.447 48.152V53.012ZM199.091 56V53.312L199.475 53.66H197.015C196.311 53.66 195.703 53.544 195.191 53.312C194.687 53.072 194.299 52.732 194.027 52.292C193.755 51.844 193.619 51.308 193.619 50.684C193.619 50.036 193.763 49.484 194.051 49.028C194.339 48.564 194.747 48.212 195.275 47.972C195.803 47.724 196.423 47.6 197.135 47.6H200.627V56H199.091ZM193.643 56L195.719 53H197.291L195.287 56H193.643ZM199.091 52.808V48.488L199.475 48.92H197.183C196.543 48.92 196.051 49.068 195.707 49.364C195.371 49.652 195.203 50.084 195.203 50.66C195.203 51.212 195.363 51.64 195.683 51.944C196.011 52.24 196.491 52.388 197.123 52.388H199.475L199.091 52.808ZM204.76 56V48.536L205.132 48.92H201.988V47.6H209.092V48.92H205.948L206.308 48.536V56H204.76ZM210.45 56V47.6H211.986V53.564L216.498 47.6H217.95V56H216.414V50.048L211.902 56H210.45ZM225.189 56V53.312L225.573 53.66H223.113C222.409 53.66 221.801 53.544 221.289 53.312C220.785 53.072 220.397 52.732 220.125 52.292C219.853 51.844 219.717 51.308 219.717 50.684C219.717 50.036 219.861 49.484 220.149 49.028C220.437 48.564 220.845 48.212 221.373 47.972C221.901 47.724 222.521 47.6 223.233 47.6H226.725V56H225.189ZM219.741 56L221.817 53H223.389L221.385 56H219.741ZM225.189 52.808V48.488L225.573 48.92H223.281C222.641 48.92 222.149 49.068 221.805 49.364C221.469 49.652 221.301 50.084 221.301 50.66C221.301 51.212 221.461 51.64 221.781 51.944C222.109 52.24 222.589 52.388 223.221 52.388H225.573L225.189 52.808Z" fill="#666666"/>
<path d="M10.2139 1.8587C10.6845 2.03262 11.2406 2.22827 11.4438 2.28262L11.8182 2.38044L11.7861 6.70653C11.754 10.9239 11.754 11.0326 11.5294 11.2717C11.2299 11.5978 11.2299 12.3044 11.5294 12.7065C11.7005 12.9457 11.754 13.2065 11.7754 14.0435C11.8182 15.2065 11.9893 15.5435 12.5134 15.5435C13.0267 15.5435 13.1551 15.2609 13.1551 14.1413C13.1551 13.2174 13.1765 13.0978 13.4224 12.8044C13.615 12.5652 13.6898 12.3587 13.6898 12.0109C13.6898 11.6631 13.615 11.4565 13.4224 11.2174L13.1551 10.8913V6.91305C13.1551 4.72827 13.1765 2.93479 13.1978 2.93479C13.2406 2.93479 16.1711 3.97827 16.9305 4.26088L17.2192 4.36957V9.19566V14.0217L30.246 14L43.262 13.9674L43.2941 9.13044L43.3155 4.29349L44.2567 3.94566C44.77 3.76088 46.4599 3.15218 48.0214 2.59784C49.5829 2.05436 50.877 1.58697 50.8984 1.56523C50.9198 1.54349 41.5829 1.52175 30.1497 1.52175L9.35828 1.53262L10.2139 1.8587Z" fill="#666666"/>
<path d="M16.4385 32.6413L16.4492 47.1196L17.2407 47.8805C17.6685 48.2935 19.0054 49.5652 20.2139 50.6957C24.0535 54.3044 26.8663 56.9674 27.9465 58.0109C28.8663 58.9131 29.23 59.1631 29.2086 58.8805C29.1979 58.837 29.1979 52.1413 29.1979 43.9892L29.1872 29.1848L24.7273 25.3044C22.2781 23.1631 19.4225 20.6848 18.3957 19.7826C17.369 18.8913 16.5027 18.1522 16.4706 18.1522C16.4385 18.1522 16.4278 24.6739 16.4385 32.6413Z" fill="#666666"/>
<path d="M43.4652 18.6196C43.1765 18.8805 41.0695 20.7283 38.7701 22.7283C32.984 27.7609 31.6257 28.9565 31.4759 29.1522C31.3583 29.2935 31.3155 37.7283 31.3369 56.9891V59.1522L31.9144 58.6196C32.2353 58.337 34.1925 56.4891 36.2674 54.5218C43.1123 48.0544 43.8717 47.337 43.9679 47.2826C44.0642 47.2174 44.1497 18.1522 44.0535 18.1522C44.0107 18.1522 43.7433 18.3696 43.4652 18.6196Z" fill="#666666"/>
<path d="M9.43315 35.7174L9.46523 50.8913L13.4225 52.5109C15.6043 53.4022 18.0321 54.3913 18.8235 54.7174C19.615 55.0435 20.9198 55.587 21.7112 55.9131C22.5027 56.25 23.1979 56.5109 23.2513 56.4892C23.3048 56.4674 22.8235 55.9892 22.1818 55.4239C20.8449 54.2392 19.5829 53.087 15.9465 49.7826L13.3797 47.4457L13.3476 34.837L13.3155 22.2283L11.4438 21.3913C10.4171 20.9348 9.5401 20.5544 9.48662 20.5544C9.44384 20.5435 9.42245 27.3696 9.43315 35.7174Z" fill="#666666"/>
<path d="M49.0909 21.4022L47.2192 22.2391L47.1872 34.8152L47.1658 47.3913L46.7166 47.8044C46.4706 48.0217 45.4973 48.913 44.5454 49.7826C43.6043 50.6522 42.6203 51.5544 42.3529 51.7826C41.4331 52.6087 40.1711 53.75 39.3583 54.5109C38.9198 54.9239 38.246 55.5326 37.8823 55.8587C37.5187 56.1848 37.2406 56.4674 37.262 56.5C37.3048 56.5326 39.5508 55.6522 40.3743 55.2609C40.5561 55.1848 43.0267 54.163 45.8823 53L51.0695 50.8913L51.1016 35.7174C51.1123 27.3696 51.0909 20.5435 51.0481 20.5544C50.9946 20.5652 50.1176 20.9457 49.0909 21.4022Z" fill="#666666"/>
<path d="M2.32086 25.1848C2.24599 25.3044 2.28877 55.3044 2.36364 55.3696C2.39572 55.4022 3.09091 55.5326 3.91444 55.6522C6.6738 56.0544 8.47059 56.337 10.9626 56.7391C11.3155 56.8044 12.107 56.9239 12.7273 57.0109C13.3476 57.0978 14.2888 57.25 14.8128 57.337C15.754 57.5 19.3262 58.0435 19.4332 58.0435C19.4652 58.0435 19.4332 57.9674 19.3583 57.8804C19.2834 57.7935 19.1658 57.7174 19.1016 57.7174C18.9733 57.7174 13.5615 55.3913 9.89305 53.75C8.78075 53.2609 7.63637 52.75 7.3476 52.6304L6.84492 52.4022V39.1087V25.8152L6.18182 25.6848C5.15508 25.4891 2.74867 25.1087 2.54546 25.1087C2.4492 25.1087 2.34225 25.1413 2.32086 25.1848Z" fill="#666666"/>
<path d="M55.9893 25.3913C55.1658 25.5326 54.3102 25.6848 54.0856 25.7283L53.6791 25.8152L53.6578 39.1196L53.6257 52.4348L52.4064 52.9674C50.738 53.6957 47.5722 55.087 45.5615 55.9783C44.6524 56.3913 43.3262 56.9457 42.6203 57.2283C41.9144 57.5109 41.262 57.8152 41.1765 57.9022C40.9947 58.0761 40.8877 58.087 43.5829 57.6631C44.5241 57.5109 46.0856 57.2717 47.0588 57.1196C48.0321 56.9674 49.1123 56.7935 49.4652 56.7391C50.5561 56.5652 52.8449 56.2065 53.6898 56.087C54.1283 56.0217 54.7594 55.9239 55.0802 55.8696C55.4011 55.8152 56.2353 55.6957 56.9305 55.587L58.1818 55.4022V40.2609V25.1087L57.8396 25.1196C57.6471 25.1304 56.8128 25.25 55.9893 25.3913Z" fill="#666666"/>
</svg>
