<svg width="20" height="20" viewBox="0 0 20 20" fill="none" xmlns="http://www.w3.org/2000/svg">
<g clip-path="url(#clip0_264_42)">
<path d="M18.869 19.162L12.926 12.678C14.265 11.277 15.001 9.445 15.001 7.5C15.001 5.497 14.221 3.613 12.804 2.197C11.387 0.781 9.50401 0 7.50101 0C5.49801 0 3.61401 0.78 2.19801 2.197C0.782007 3.614 0.00100708 5.497 0.00100708 7.5C0.00100708 9.503 0.781007 11.387 2.19801 12.803C3.61501 14.219 5.49801 15 7.50101 15C9.22701 15 10.863 14.421 12.189 13.355L18.132 19.838C18.231 19.946 18.365 20 18.501 20C18.622 20 18.743 19.957 18.839 19.869C19.043 19.682 19.056 19.366 18.87 19.163L18.869 19.162ZM1.00001 7.5C1.00001 3.916 3.91601 1 7.50001 1C11.084 1 14 3.916 14 7.5C14 11.084 11.084 14 7.50001 14C3.91601 14 1.00001 11.084 1.00001 7.5Z" fill="white"/>
</g>
<defs>
<clipPath id="clip0_264_42">
<rect width="20" height="20" fill="white"/>
</clipPath>
</defs>
</svg>
