<svg width="47" height="46" viewBox="0 0 47 46" fill="none" xmlns="http://www.w3.org/2000/svg">
<g clip-path="url(#clip0_264_16)">
<path d="M40.8259 36.8H4.02593C2.12383 36.8 0.575928 35.2521 0.575928 33.35V14.95C0.575928 13.0479 2.12383 11.5 4.02593 11.5H40.8259C42.728 11.5 44.2759 13.0479 44.2759 14.95V33.35C44.2759 35.2521 42.728 36.8 40.8259 36.8ZM4.02593 13.8C3.39113 13.8 2.87593 14.3152 2.87593 14.95V33.35C2.87593 33.9848 3.39113 34.5 4.02593 34.5H40.8259C41.4607 34.5 41.9759 33.9848 41.9759 33.35V14.95C41.9759 14.3152 41.4607 13.8 40.8259 13.8H4.02593Z" fill="#666666"/>
<path d="M8.6259 18.4H6.3259C5.6911 18.4 5.1759 17.8848 5.1759 17.25C5.1759 16.6152 5.6911 16.1 6.3259 16.1H8.6259C9.2607 16.1 9.7759 16.6152 9.7759 17.25C9.7759 17.8848 9.2607 18.4 8.6259 18.4Z" fill="#666666"/>
<path d="M38.5259 18.4H36.2259C35.5911 18.4 35.0759 17.8848 35.0759 17.25C35.0759 16.6152 35.5911 16.1 36.2259 16.1H38.5259C39.1607 16.1 39.6759 16.6152 39.6759 17.25C39.6759 17.8848 39.1607 18.4 38.5259 18.4Z" fill="#666666"/>
<path d="M10.9259 23H6.3259C5.6911 23 5.1759 22.4848 5.1759 21.85C5.1759 21.2152 5.6911 20.7 6.3259 20.7H10.9259C11.5607 20.7 12.0759 21.2152 12.0759 21.85C12.0759 22.4848 11.5607 23 10.9259 23Z" fill="#666666"/>
<path d="M8.6259 32.2H6.3259C5.6911 32.2 5.1759 31.6848 5.1759 31.05C5.1759 30.4152 5.6911 29.9 6.3259 29.9H8.6259C9.2607 29.9 9.7759 30.4152 9.7759 31.05C9.7759 31.6848 9.2607 32.2 8.6259 32.2Z" fill="#666666"/>
<path d="M27.0259 32.2H13.2259C12.5911 32.2 12.0759 31.6848 12.0759 31.05C12.0759 30.4152 12.5911 29.9 13.2259 29.9H27.0259C27.6607 29.9 28.1759 30.4152 28.1759 31.05C28.1759 31.6848 27.6607 32.2 27.0259 32.2Z" fill="#666666"/>
<path d="M33.926 32.2H31.626C30.9912 32.2 30.476 31.6848 30.476 31.05C30.476 30.4152 30.9912 29.9 31.626 29.9H33.926C34.5608 29.9 35.076 30.4152 35.076 31.05C35.076 31.6848 34.5608 32.2 33.926 32.2Z" fill="#666666"/>
<path d="M38.526 27.6H31.626C30.9912 27.6 30.476 27.0848 30.476 26.45C30.476 25.8152 30.9912 25.3 31.626 25.3H37.376V21.85C37.376 21.2152 37.8912 20.7 38.526 20.7C39.1608 20.7 39.676 21.2152 39.676 21.85V26.45C39.676 27.0848 39.1608 27.6 38.526 27.6Z" fill="#666666"/>
<path d="M13.2259 27.6H6.3259C5.6911 27.6 5.1759 27.0848 5.1759 26.45C5.1759 25.8152 5.6911 25.3 6.3259 25.3H13.2259C13.8607 25.3 14.3759 25.8152 14.3759 26.45C14.3759 27.0848 13.8607 27.6 13.2259 27.6Z" fill="#666666"/>
<path d="M14.3759 17.25C14.3759 17.8848 13.8607 18.4 13.2259 18.4C12.5911 18.4 12.0759 17.8848 12.0759 17.25C12.0759 16.6152 12.5911 16.1 13.2259 16.1C13.8607 16.1 14.3759 16.6152 14.3759 17.25Z" fill="#666666"/>
<path d="M18.9759 17.25C18.9759 17.8848 18.4607 18.4 17.8259 18.4C17.1911 18.4 16.6759 17.8848 16.6759 17.25C16.6759 16.6152 17.1911 16.1 17.8259 16.1C18.4607 16.1 18.9759 16.6152 18.9759 17.25Z" fill="#666666"/>
<path d="M23.5759 17.25C23.5759 17.8848 23.0607 18.4 22.4259 18.4C21.7911 18.4 21.2759 17.8848 21.2759 17.25C21.2759 16.6152 21.7911 16.1 22.4259 16.1C23.0607 16.1 23.5759 16.6152 23.5759 17.25Z" fill="#666666"/>
<path d="M28.1759 17.25C28.1759 17.8848 27.6607 18.4 27.0259 18.4C26.3911 18.4 25.8759 17.8848 25.8759 17.25C25.8759 16.6152 26.3911 16.1 27.0259 16.1C27.6607 16.1 28.1759 16.6152 28.1759 17.25Z" fill="#666666"/>
<path d="M32.776 17.25C32.776 17.8848 32.2608 18.4 31.626 18.4C30.9912 18.4 30.476 17.8848 30.476 17.25C30.476 16.6152 30.9912 16.1 31.626 16.1C32.2608 16.1 32.776 16.6152 32.776 17.25Z" fill="#666666"/>
<path d="M16.6759 21.85C16.6759 22.4848 16.1607 23 15.5259 23C14.8911 23 14.3759 22.4848 14.3759 21.85C14.3759 21.2152 14.8911 20.7 15.5259 20.7C16.1607 20.7 16.6759 21.2152 16.6759 21.85Z" fill="#666666"/>
<path d="M21.276 21.85C21.276 22.4848 20.7608 23 20.126 23C19.4912 23 18.976 22.4848 18.976 21.85C18.976 21.2152 19.4912 20.7 20.126 20.7C20.7608 20.7 21.276 21.2152 21.276 21.85Z" fill="#666666"/>
<path d="M25.8759 21.85C25.8759 22.4848 25.3607 23 24.7259 23C24.0911 23 23.5759 22.4848 23.5759 21.85C23.5759 21.2152 24.0911 20.7 24.7259 20.7C25.3607 20.7 25.8759 21.2152 25.8759 21.85Z" fill="#666666"/>
<path d="M30.4759 21.85C30.4759 22.4848 29.9607 23 29.3259 23C28.6911 23 28.1759 22.4848 28.1759 21.85C28.1759 21.2152 28.6911 20.7 29.3259 20.7C29.9607 20.7 30.4759 21.2152 30.4759 21.85Z" fill="#666666"/>
<path d="M35.0759 21.85C35.0759 22.4848 34.5607 23 33.9259 23C33.2911 23 32.7759 22.4848 32.7759 21.85C32.7759 21.2152 33.2911 20.7 33.9259 20.7C34.5607 20.7 35.0759 21.2152 35.0759 21.85Z" fill="#666666"/>
<path d="M18.9759 26.45C18.9759 27.0848 18.4607 27.6 17.8259 27.6C17.1911 27.6 16.6759 27.0848 16.6759 26.45C16.6759 25.8152 17.1911 25.3 17.8259 25.3C18.4607 25.3 18.9759 25.8152 18.9759 26.45Z" fill="#666666"/>
<path d="M23.5759 26.45C23.5759 27.0848 23.0607 27.6 22.4259 27.6C21.7911 27.6 21.2759 27.0848 21.2759 26.45C21.2759 25.8152 21.7911 25.3 22.4259 25.3C23.0607 25.3 23.5759 25.8152 23.5759 26.45Z" fill="#666666"/>
<path d="M28.1759 26.45C28.1759 27.0848 27.6607 27.6 27.0259 27.6C26.3911 27.6 25.8759 27.0848 25.8759 26.45C25.8759 25.8152 26.3911 25.3 27.0259 25.3C27.6607 25.3 28.1759 25.8152 28.1759 26.45Z" fill="#666666"/>
</g>
<defs>
<clipPath id="clip0_264_16">
<rect width="46" height="46" fill="white" transform="translate(0.575928)"/>
</clipPath>
</defs>
</svg>
